# xmcd
#
# Track frame offsets: 
#        150
#        19642
#        37800
#        57077
#        72697
#        87737
#        101810
#        119250
#        142267
#
# Disc length: 2260 seconds
#
# Revision: 0
# Processed by: cddbd v1.5.1PL0 Copyright (c) Steve Scherf et al.
# Submitted via: ExactAudioCopy v0.95a5
#
DISCID=8208d209
DTITLE=Billy Price - Live
DYEAR=1900
DGENRE=R&B
TTITLE0=I'm So Glad
TTITLE1=Precious, Precious
TTITLE2=Good Time Charlie
TTITLE3=Since You've Gone Again
TTITLE4=Eldorado Cafe
TTITLE5=I'm Sick Y'all
TTITLE6=One Man, Two Lovers
TTITLE7=I Can't Lose the Blues
TTITLE8=Turn Back the Hands of Time
EXTD=
EXTT0=
EXTT1=
EXTT2=
EXTT3=
EXTT4=
EXTT5=
EXTT6=
EXTT7=
EXTT8=
PLAYORDER=
